<svg xmlns="http://www.w3.org/2000/svg" viewBox="0 0 760 340" role="img" aria-labelledby="title desc">
  <title id="title">Research framework placeholder</title>
  <desc id="desc">A clean placeholder diagram for a publication figure.</desc>
  <defs>
    <marker id="arrow" markerWidth="10" markerHeight="10" refX="8" refY="3" orient="auto">
      <path d="M0,0 L0,6 L9,3 z" fill="#4d6f91"/>
    </marker>
  </defs>
  <rect width="760" height="340" fill="#ffffff"/>
  <g fill="#f4f7fb" stroke="#aebdce" stroke-width="2">
    <rect x="34" y="58" width="130" height="86" rx="6"/>
    <rect x="34" y="198" width="130" height="86" rx="6"/>
    <rect x="232" y="42" width="130" height="90" rx="6"/>
    <rect x="232" y="208" width="130" height="90" rx="6"/>
    <rect x="430" y="80" width="128" height="70" rx="6"/>
    <rect x="430" y="190" width="128" height="70" rx="6"/>
    <rect x="626" y="108" width="102" height="126" rx="6"/>
  </g>
  <g fill="#254f7a" font-family="Arial, sans-serif" font-size="18" font-weight="700">
    <text x="99" y="106" text-anchor="middle">Input A</text>
    <text x="99" y="246" text-anchor="middle">Input B</text>
    <text x="297" y="92" text-anchor="middle">Encoder</text>
    <text x="297" y="258" text-anchor="middle">Encoder</text>
    <text x="494" y="122" text-anchor="middle">Fusion</text>
    <text x="494" y="232" text-anchor="middle">Loss</text>
    <text x="677" y="176" text-anchor="middle">Output</text>
  </g>
  <g stroke="#4d6f91" stroke-width="3" fill="none" marker-end="url(#arrow)">
    <path d="M164 101 C190 101 200 87 232 87"/>
    <path d="M164 241 C190 241 200 253 232 253"/>
    <path d="M362 87 C394 87 399 115 430 115"/>
    <path d="M362 253 C394 253 399 225 430 225"/>
    <path d="M558 115 C596 118 598 154 626 158"/>
    <path d="M558 225 C596 222 598 188 626 184"/>
  </g>
  <g stroke="#d9544d" stroke-width="2" stroke-dasharray="7 6" fill="none">
    <path d="M297 132 C315 165 315 185 297 208"/>
    <path d="M494 150 C506 165 506 175 494 190"/>
  </g>
  <g fill="#dce7f5" stroke="#8da5be" stroke-width="1.5">
    <circle cx="68" cy="82" r="10"/>
    <circle cx="98" cy="82" r="10"/>
    <circle cx="128" cy="82" r="10"/>
    <circle cx="68" cy="222" r="10"/>
    <circle cx="98" cy="222" r="10"/>
    <circle cx="128" cy="222" r="10"/>
  </g>
</svg>
